# 3ds Max Wavefront OBJ Exporter v0.99 - (c)2007 guruware
# File Created: 19.03.2021 14:23:58

mtllib mine.mtl

#
# object mine
#

v  0.5988 0.0000 -0.0156
v  0.5743 0.0000 -0.1702
v  0.4755 0.0000 -0.1545
v  0.4045 0.0000 -0.2939
v  0.4045 0.0907 -0.2939
v  0.4755 0.0907 -0.1545
v  0.2939 0.0000 -0.4045
v  0.2939 0.0907 -0.4045
v  0.1545 0.0000 -0.4755
v  0.1545 0.0907 -0.4755
v  -0.0000 0.0000 -0.5000
v  -0.0000 0.0907 -0.5000
v  -0.0156 0.0000 -0.5988
v  -0.1702 0.0000 -0.5743
v  -0.1545 0.0000 -0.4755
v  -0.2939 0.0000 -0.4045
v  -0.2939 0.0907 -0.4045
v  -0.1545 0.0907 -0.4755
v  -0.4045 0.0000 -0.2939
v  -0.4045 0.0907 -0.2939
v  -0.4755 0.0000 -0.1545
v  -0.4755 0.0907 -0.1545
v  -0.5000 0.0000 0.0000
v  -0.5000 0.0907 0.0000
v  -0.5988 0.0000 0.0156
v  -0.5743 0.0000 0.1702
v  -0.4755 0.0000 0.1545
v  -0.4045 0.0000 0.2939
v  -0.4045 0.0907 0.2939
v  -0.4755 0.0907 0.1545
v  -0.2939 0.0000 0.4045
v  -0.2939 0.0907 0.4045
v  -0.1545 0.0000 0.4755
v  -0.1545 0.0907 0.4755
v  0.0000 0.0000 0.5000
v  0.0000 0.0907 0.5000
v  0.0156 0.0000 0.5988
v  0.1702 0.0000 0.5743
v  0.1545 0.0000 0.4755
v  0.2939 0.0000 0.4045
v  0.2939 0.0907 0.4045
v  0.1545 0.0907 0.4755
v  0.4045 0.0000 0.2939
v  0.4045 0.0907 0.2939
v  0.4755 0.0000 0.1545
v  0.4755 0.0907 0.1545
v  0.5000 0.0000 -0.0000
v  0.5000 0.0907 -0.0000
v  0.4268 0.1333 -0.1387
v  0.4488 0.1333 -0.0000
v  0.3631 0.1333 -0.2638
v  0.2638 0.1333 -0.3631
v  0.1387 0.1333 -0.4268
v  -0.0000 0.1333 -0.4488
v  -0.1387 0.1333 -0.4268
v  -0.2638 0.1333 -0.3631
v  -0.3631 0.1333 -0.2638
v  -0.4268 0.1333 -0.1387
v  -0.4488 0.1333 0.0000
v  -0.4268 0.1333 0.1387
v  -0.3631 0.1333 0.2638
v  -0.2638 0.1333 0.3631
v  -0.1387 0.1333 0.4268
v  0.0000 0.1333 0.4488
v  0.1387 0.1333 0.4268
v  0.2638 0.1333 0.3631
v  0.3631 0.1333 0.2638
v  0.4268 0.1333 0.1387
v  0.0693 0.1333 -0.0225
v  0.0729 0.1333 -0.0000
v  0.0590 0.1333 -0.0429
v  0.0429 0.1333 -0.0590
v  0.0225 0.1333 -0.0693
v  0.0000 0.1333 -0.0729
v  -0.0225 0.1333 -0.0693
v  -0.0429 0.1333 -0.0590
v  -0.0590 0.1333 -0.0429
v  -0.0693 0.1333 -0.0225
v  -0.0729 0.1333 -0.0000
v  -0.0693 0.1333 0.0225
v  -0.0590 0.1333 0.0429
v  -0.0429 0.1333 0.0590
v  -0.0225 0.1333 0.0693
v  0.0000 0.1333 0.0729
v  0.0225 0.1333 0.0693
v  0.0429 0.1333 0.0590
v  0.0590 0.1333 0.0429
v  0.0693 0.1333 0.0225
v  0.0693 0.1742 0.0225
v  0.0729 0.1742 -0.0000
v  0.0693 0.1742 -0.0225
v  0.0590 0.1742 -0.0429
v  0.0429 0.1742 -0.0590
v  0.0225 0.1742 -0.0693
v  0.0000 0.1742 -0.0729
v  -0.0225 0.1742 -0.0693
v  -0.0429 0.1742 -0.0590
v  -0.0590 0.1742 -0.0429
v  -0.0693 0.1742 -0.0225
v  -0.0729 0.1742 -0.0000
v  -0.0693 0.1742 0.0225
v  -0.0590 0.1742 0.0429
v  -0.0429 0.1742 0.0590
v  -0.0225 0.1742 0.0693
v  0.0000 0.1742 0.0729
v  0.0225 0.1742 0.0693
v  0.0429 0.1742 0.0590
v  0.0590 0.1742 0.0429
v  0.5496 0.0680 -0.1662
v  0.5741 0.0680 -0.0117
v  -0.1662 0.0680 -0.5496
v  -0.0117 0.0680 -0.5741
v  -0.5496 0.0680 0.1662
v  -0.5741 0.0680 0.0117
v  0.1662 0.0680 0.5496
v  0.0117 0.0680 0.5741
# 116 vertices

vn 0.9270 0.3451 -0.1468
vn 0.8910 0.0000 -0.4540
vn 0.8090 0.0000 -0.5878
vn 0.5878 0.0000 -0.8090
vn 0.3090 0.0000 -0.9511
vn 0.1564 0.0000 -0.9877
vn -0.1468 0.3451 -0.9270
vn -0.4540 0.0000 -0.8910
vn -0.5878 0.0000 -0.8090
vn -0.8090 0.0000 -0.5878
vn -0.9511 0.0000 -0.3090
vn -0.9877 0.0000 -0.1564
vn -0.9270 0.3451 0.1468
vn -0.8910 0.0000 0.4540
vn -0.8090 0.0000 0.5878
vn -0.5878 0.0000 0.8090
vn -0.3090 0.0000 0.9511
vn -0.1564 0.0000 0.9877
vn 0.1468 0.3451 0.9270
vn 0.4540 0.0000 0.8910
vn 0.5878 0.0000 0.8090
vn 0.8090 0.0000 0.5878
vn 0.9511 0.0000 0.3090
vn 0.9877 0.0000 0.1564
vn 0.5836 0.8116 -0.0264
vn 0.5632 0.8116 -0.1552
vn 0.6088 0.7683 -0.1978
vn 0.6401 0.7683 -0.0000
vn 0.5179 0.7683 -0.3763
vn 0.3763 0.7683 -0.5179
vn 0.1978 0.7683 -0.6088
vn -0.0381 0.8294 -0.5574
vn -0.0000 0.7683 -0.6401
vn -0.1552 0.8116 -0.5632
vn -0.1978 0.7683 -0.6088
vn -0.3763 0.7683 -0.5179
vn -0.5179 0.7683 -0.3763
vn -0.6088 0.7683 -0.1978
vn -0.5574 0.8294 0.0381
vn -0.6401 0.7683 0.0000
vn -0.5632 0.8116 0.1552
vn -0.6088 0.7683 0.1978
vn -0.5179 0.7683 0.3763
vn -0.3763 0.7683 0.5179
vn -0.1978 0.7683 0.6088
vn 0.0382 0.8294 0.5574
vn 0.0000 0.7683 0.6401
vn 0.1552 0.8116 0.5632
vn 0.1978 0.7683 0.6088
vn 0.3763 0.7683 0.5179
vn 0.5179 0.7683 0.3763
vn 0.6088 0.7683 0.1978
vn 0.0000 1.0000 -0.0000
vn -0.0000 1.0000 -0.0000
vn -0.0000 1.0000 0.0000
vn 0.0000 1.0000 0.0000
vn 0.9511 0.0000 -0.3090
vn 1.0000 0.0000 0.0000
vn 0.0000 0.0000 -1.0000
vn -0.3090 0.0000 -0.9511
vn -1.0000 0.0000 0.0000
vn -0.9511 0.0000 0.3090
vn 0.0000 0.0000 1.0000
vn 0.3090 0.0000 0.9511
vn -0.1564 -0.0000 -0.9877
vn 0.3803 0.9229 -0.0602
vn 0.1564 -0.0000 0.9877
vn -0.9877 0.0000 0.1564
vn -0.0480 0.9518 -0.3031
vn -0.0602 0.9229 -0.3803
vn 0.9877 -0.0000 -0.1564
vn -0.3031 0.9518 0.0480
vn -0.3803 0.9229 0.0602
vn 0.0480 0.9518 0.3031
vn 0.0602 0.9229 0.3803
vn -0.9877 -0.0000 0.1564
vn 0.2857 0.9573 -0.0453
vn -0.0453 0.9573 -0.2857
vn -0.2857 0.9573 0.0453
vn 0.0453 0.9573 0.2857
# 80 vertex normals

vt 0.7500 0.0000 1.0000
vt 0.8000 0.0000 1.0000
vt 0.8500 0.0000 1.0000
vt 0.8500 0.3333 1.0000
vt 0.8000 0.3333 1.0000
vt 0.9000 0.0000 1.0000
vt 0.9000 0.3333 1.0000
vt 0.9500 0.0000 1.0000
vt 0.9500 0.3333 1.0000
vt -0.0500 0.0000 1.0000
vt 0.0000 0.0000 1.0000
vt 0.0000 0.3333 1.0000
vt -0.0500 0.3333 1.0000
vt 0.0500 0.0000 1.0000
vt 0.1000 0.0000 1.0000
vt 0.1000 0.3333 1.0000
vt 0.0500 0.3333 1.0000
vt 0.1500 0.0000 1.0000
vt 0.1500 0.3333 1.0000
vt 0.2000 0.0000 1.0000
vt 0.2000 0.3333 1.0000
vt 0.2500 0.0000 1.0000
vt 0.2500 0.3333 1.0000
vt 0.3000 0.0000 1.0000
vt 0.3500 0.0000 1.0000
vt 0.3500 0.3333 1.0000
vt 0.3000 0.3333 1.0000
vt 0.4000 0.0000 1.0000
vt 0.4000 0.3333 1.0000
vt 0.4500 0.0000 1.0000
vt 0.4500 0.3333 1.0000
vt 0.5000 0.0000 1.0000
vt 0.5000 0.3333 1.0000
vt 0.5500 0.0000 1.0000
vt 0.6000 0.0000 1.0000
vt 0.6000 0.3333 1.0000
vt 0.5500 0.3333 1.0000
vt 0.6500 0.0000 1.0000
vt 0.6500 0.3333 1.0000
vt 0.7000 0.0000 1.0000
vt 0.7000 0.3333 1.0000
vt 0.7500 0.3333 1.0000
vt 0.8000 0.6667 1.0000
vt 0.7500 0.6667 1.0000
vt 0.8500 0.6667 1.0000
vt 0.9000 0.6667 1.0000
vt 0.9500 0.6667 1.0000
vt 0.0000 0.6667 1.0000
vt -0.0500 0.6667 1.0000
vt 0.0500 0.6667 1.0000
vt 0.1000 0.6667 1.0000
vt 0.1500 0.6667 1.0000
vt 0.2000 0.6667 1.0000
vt 0.2500 0.6667 1.0000
vt 0.3000 0.6667 1.0000
vt 0.3500 0.6667 1.0000
vt 0.4000 0.6667 1.0000
vt 0.4500 0.6667 1.0000
vt 0.5000 0.6667 1.0000
vt 0.5500 0.6667 1.0000
vt 0.6000 0.6667 1.0000
vt 0.6500 0.6667 1.0000
vt 0.7000 0.6667 1.0000
vt 0.8000 0.6983 1.0000
vt 0.7500 0.6983 1.0000
vt 0.8500 0.6983 1.0000
vt 0.9000 0.6983 1.0000
vt 0.9500 0.6983 1.0000
vt 0.0000 0.6983 1.0000
vt -0.0500 0.6983 1.0000
vt 0.0500 0.6983 1.0000
vt 0.1000 0.6983 1.0000
vt 0.1500 0.6983 1.0000
vt 0.2000 0.6983 1.0000
vt 0.2500 0.6983 1.0000
vt 0.3000 0.6983 1.0000
vt 0.3500 0.6983 1.0000
vt 0.4000 0.6983 1.0000
vt 0.4500 0.6983 1.0000
vt 0.5000 0.6983 1.0000
vt 0.5500 0.6983 1.0000
vt 0.6000 0.6983 1.0000
vt 0.6500 0.6983 1.0000
vt 0.7000 0.6983 1.0000
vt 0.7000 1.0000 1.0000
vt 0.7500 1.0000 1.0000
vt 0.8000 1.0000 1.0000
vt 0.8500 1.0000 1.0000
vt 0.9000 1.0000 1.0000
vt 0.9500 1.0000 1.0000
vt 0.9560 1.0000 0.9021
vt 0.9173 1.0000 0.7159
vt 0.8377 1.0000 0.4596
vt 0.7252 1.0000 0.1584
vt 0.5905 1.0000 -0.1584
vt 0.4470 1.0000 -0.4597
vt 0.3087 1.0000 -0.7159
vt 0.1892 1.0000 -0.9021
vt 0.1000 1.0000 -1.0000
vt 0.0500 1.0000 -1.0000
vt 0.0440 1.0000 -0.9021
vt 0.0827 1.0000 -0.7159
vt 0.1623 1.0000 -0.4596
vt 0.2748 1.0000 -0.1584
vt 0.0000 1.0000 1.0000
vt -0.0500 1.0000 1.0000
vt 0.0500 1.0000 1.0000
vt 0.1000 1.0000 1.0000
vt 0.1500 1.0000 1.0000
vt 0.2000 1.0000 1.0000
vt 0.2500 1.0000 1.0000
vt 0.3000 1.0000 1.0000
vt 0.3500 1.0000 1.0000
vt 0.4000 1.0000 1.0000
vt 0.4500 1.0000 1.0000
vt 0.5000 1.0000 1.0000
vt 0.5500 1.0000 1.0000
vt 0.6000 1.0000 1.0000
vt 0.6500 1.0000 1.0000
# 119 texture coords

o mine
g mine
usemtl wire_085028177
s 1
f 1/1/1 2/2/1 2/2/1 1/1/1 
f 3/2/2 4/3/3 5/4/3 6/5/2 
f 4/3/3 7/6/4 8/7/4 5/4/3 
f 7/6/4 9/8/5 10/9/5 8/7/4 
f 9/10/5 11/11/6 12/12/6 10/13/5 
f 13/11/7 14/14/7 14/14/7 13/11/7 
f 15/14/8 16/15/9 17/16/9 18/17/8 
f 16/15/9 19/18/10 20/19/10 17/16/9 
f 19/18/10 21/20/11 22/21/11 20/19/10 
f 21/20/11 23/22/12 24/23/12 22/21/11 
f 25/22/13 26/24/13 26/24/13 25/22/13 
f 27/24/14 28/25/15 29/26/15 30/27/14 
f 28/25/15 31/28/16 32/29/16 29/26/15 
f 31/28/16 33/30/17 34/31/17 32/29/16 
f 33/30/17 35/32/18 36/33/18 34/31/17 
f 37/32/19 38/34/19 38/34/19 37/32/19 
f 39/34/20 40/35/21 41/36/21 42/37/20 
f 40/35/21 43/38/22 44/39/22 41/36/21 
f 43/38/22 45/40/23 46/41/23 44/39/22 
f 45/40/23 47/1/24 48/42/24 46/41/23 
s 2
f 48/42/25 6/5/26 49/43/27 50/44/28 
f 6/5/26 5/4/29 51/45/29 49/43/27 
f 5/4/29 8/7/30 52/46/30 51/45/29 
f 8/7/30 10/9/31 53/47/31 52/46/30 
f 10/13/31 12/12/32 54/48/33 53/49/31 
f 12/12/32 18/17/34 55/50/35 54/48/33 
f 18/17/34 17/16/36 56/51/36 55/50/35 
f 17/16/36 20/19/37 57/52/37 56/51/36 
f 20/19/37 22/21/38 58/53/38 57/52/37 
f 22/21/38 24/23/39 59/54/40 58/53/38 
f 24/23/39 30/27/41 60/55/42 59/54/40 
f 30/27/41 29/26/43 61/56/43 60/55/42 
f 29/26/43 32/29/44 62/57/44 61/56/43 
f 32/29/44 34/31/45 63/58/45 62/57/44 
f 34/31/45 36/33/46 64/59/47 63/58/45 
f 36/33/46 42/37/48 65/60/49 64/59/47 
f 42/37/48 41/36/50 66/61/50 65/60/49 
f 41/36/50 44/39/51 67/62/51 66/61/50 
f 44/39/51 46/41/52 68/63/52 67/62/51 
f 46/41/52 48/42/25 50/44/28 68/63/52 
s 1
f 50/44/53 49/43/53 69/64/53 70/65/53 
f 49/43/53 51/45/53 71/66/53 69/64/53 
f 51/45/53 52/46/53 72/67/53 71/66/53 
f 52/46/53 53/47/53 73/68/53 72/67/53 
f 53/49/53 54/48/54 74/69/54 73/70/53 
f 54/48/54 55/50/54 75/71/54 74/69/54 
f 55/50/54 56/51/54 76/72/54 75/71/54 
f 56/51/54 57/52/54 77/73/54 76/72/54 
f 57/52/54 58/53/54 78/74/54 77/73/54 
f 58/53/54 59/54/55 79/75/55 78/74/54 
f 59/54/55 60/55/55 80/76/55 79/75/55 
f 60/55/55 61/56/55 81/77/55 80/76/55 
f 61/56/55 62/57/55 82/78/55 81/77/55 
f 62/57/55 63/58/55 83/79/55 82/78/55 
f 63/58/55 64/59/56 84/80/56 83/79/55 
f 64/59/56 65/60/56 85/81/56 84/80/56 
f 65/60/56 66/61/56 86/82/56 85/81/56 
f 66/61/56 67/62/56 87/83/56 86/82/56 
f 67/62/56 68/63/56 88/84/56 87/83/56 
f 68/63/56 50/44/53 70/65/53 88/84/56 
f 89/85/55 90/86/55 91/87/55 92/88/55 93/89/55 94/90/55 95/91/55 96/92/55 97/93/55 98/94/55 99/95/55 100/96/55 101/97/55 102/98/55 103/99/55 104/100/55 105/101/55 106/102/55 107/103/55 108/104/55 
s 2
f 69/64/57 91/87/57 90/86/58 70/65/58 
f 71/66/3 92/88/3 91/87/57 69/64/57 
f 72/67/4 93/89/4 92/88/3 71/66/3 
f 73/68/5 94/90/5 93/89/4 72/67/4 
f 74/69/59 95/105/59 94/106/5 73/70/5 
f 75/71/60 96/107/60 95/105/59 74/69/59 
f 76/72/9 97/108/9 96/107/60 75/71/60 
f 77/73/10 98/109/10 97/108/9 76/72/9 
f 78/74/11 99/110/11 98/109/10 77/73/10 
f 79/75/61 100/111/61 99/110/11 78/74/11 
f 80/76/62 101/112/62 100/111/61 79/75/61 
f 81/77/15 102/113/15 101/112/62 80/76/62 
f 82/78/16 103/114/16 102/113/15 81/77/15 
f 83/79/17 104/115/17 103/114/16 82/78/16 
f 84/80/63 105/116/63 104/115/17 83/79/17 
f 85/81/64 106/117/64 105/116/63 84/80/63 
f 86/82/21 107/118/21 106/117/64 85/81/64 
f 87/83/22 108/119/22 107/118/21 86/82/21 
f 88/84/23 89/85/23 108/119/22 87/83/22 
f 70/65/58 90/86/58 89/85/23 88/84/23 
s 4
f 3/2/65 6/5/65 6/5/65 109/5/65 2/2/65 2/2/65 
s 2
f 6/5/26 48/42/25 48/42/66 6/5/66 
s 4
f 48/42/67 47/1/67 1/1/67 1/1/67 110/42/67 48/42/67 
f 15/14/68 18/17/68 18/17/68 111/17/68 14/14/68 14/14/68 
s 2
f 18/17/34 12/12/32 12/12/69 18/17/70 
s 4
f 12/12/71 11/11/71 13/11/71 13/11/71 112/12/71 12/12/71 
f 27/24/67 30/27/67 30/27/67 113/27/67 26/24/67 26/24/67 
s 2
f 30/27/41 24/23/39 24/23/72 30/27/73 
s 4
f 24/23/65 23/22/65 25/22/65 25/22/65 114/23/65 24/23/65 
f 39/34/71 42/37/71 42/37/71 115/37/71 38/34/71 38/34/71 
s 2
f 42/37/48 36/33/46 36/33/74 42/37/75 
s 4
f 36/33/76 35/32/76 37/32/76 37/32/76 116/33/76 36/33/76 
s 1
f 1/1/1 2/2/1 109/5/1 110/42/1 
f 13/11/7 14/14/7 111/17/7 112/12/7 
f 25/22/13 26/24/13 113/27/13 114/23/13 
f 37/32/19 38/34/19 115/37/19 116/33/19 
s 2
f 6/5/66 48/42/66 110/42/77 109/5/77 
f 18/17/70 12/12/69 112/12/78 111/17/78 
f 30/27/73 24/23/72 114/23/79 113/27/79 
f 42/37/75 36/33/74 116/33/80 115/37/80 
# 101 polygons

